<svg width="35" height="35" viewBox="0 0 35 35" fill="none" xmlns="http://www.w3.org/2000/svg">
<circle cx="17.5" cy="17.5" r="17.5" fill="#26D192" fill-opacity="0.15"/>
<path d="M18.0166 9.92505C15.2583 9.92505 13.0166 12.1667 13.0166 14.925V17.3334C13.0166 17.8417 12.8 18.6167 12.5416 19.05L11.5833 20.6417C10.9916 21.625 11.4 22.7167 12.4833 23.0834C16.075 24.2834 19.95 24.2834 23.5416 23.0834C24.55 22.75 24.9916 21.5584 24.4416 20.6417L23.4833 19.05C23.2333 18.6167 23.0166 17.8417 23.0166 17.3334V14.925C23.0166 12.175 20.7666 9.92505 18.0166 9.92505Z" stroke="#26D192" stroke-width="1.5" stroke-miterlimit="10" stroke-linecap="round"/>
<path d="M19.5583 10.1667C19.3 10.0917 19.0333 10.0334 18.7583 10C17.9583 9.90003 17.1916 9.95837 16.475 10.1667C16.7166 9.55003 17.3166 9.1167 18.0166 9.1167C18.7166 9.1167 19.3166 9.55003 19.5583 10.1667Z" stroke="#26D192" stroke-width="1.5" stroke-miterlimit="10" stroke-linecap="round" stroke-linejoin="round"/>
<path d="M20.5167 23.3833C20.5167 24.7583 19.3917 25.8833 18.0167 25.8833C17.3334 25.8833 16.7001 25.6 16.2501 25.15C15.8001 24.7 15.5167 24.0666 15.5167 23.3833" stroke="#26D192" stroke-width="1.5" stroke-miterlimit="10"/>
</svg>
