<?xml version="1.0" encoding="UTF-8" ?>
<!DOCTYPE svg PUBLIC "-//W3C//DTD SVG 1.1//EN" "http://www.w3.org/Graphics/SVG/1.1/DTD/svg11.dtd">
<svg width="725pt" height="652pt" viewBox="0 0 725 652" version="1.1" xmlns="http://www.w3.org/2000/svg">
<g id="#fcb818ff">
<path fill="#fcb818" opacity="1.00" d=" M 136.26 1.80 C 290.60 1.70 444.94 1.98 599.28 1.65 C 614.92 37.55 632.14 72.76 647.16 108.94 C 642.51 116.19 635.92 121.85 630.36 128.35 C 542.50 223.14 455.88 319.08 367.78 413.66 C 337.82 382.10 308.69 349.77 279.27 317.73 C 267.84 305.16 256.07 292.90 244.87 280.13 C 236.90 271.10 228.84 262.14 220.31 253.65 C 176.37 205.24 131.52 157.67 87.92 108.96 C 103.75 73.11 120.18 37.53 136.26 1.80 M 149.18 21.95 C 136.14 49.37 124.17 77.28 111.56 104.89 C 136.15 134.36 163.59 161.29 188.89 190.13 C 198.33 199.81 206.79 210.46 216.97 219.40 C 217.11 153.59 217.03 87.77 217.05 21.95 C 194.43 21.82 171.80 21.80 149.18 21.95 M 246.14 22.00 C 252.07 34.33 259.66 45.75 266.52 57.56 C 300.59 116.93 335.08 176.05 369.36 235.29 C 379.79 221.22 387.86 205.63 396.48 190.43 C 416.95 155.52 437.04 120.39 457.43 85.43 C 469.24 64.11 482.41 43.57 493.77 22.00 C 411.23 21.81 328.68 21.80 246.14 22.00 M 518.50 22.01 C 518.62 87.76 518.25 153.51 518.70 219.25 C 528.76 210.16 537.85 200.07 546.89 189.98 C 558.60 176.67 570.88 163.90 582.68 150.67 C 596.58 135.57 610.93 120.86 623.98 105.01 C 611.39 77.33 599.41 49.38 586.28 21.95 C 563.69 21.89 541.09 21.74 518.50 22.01 M 238.31 53.45 C 237.29 66.26 238.18 79.13 238.00 91.96 C 238.06 142.35 237.81 192.75 238.07 243.13 C 248.16 254.92 259.00 266.13 269.39 277.68 C 300.67 311.75 332.05 345.73 363.22 379.90 C 364.56 381.50 366.31 382.65 368.25 383.40 C 371.46 380.56 374.60 377.64 377.49 374.47 C 416.39 331.68 455.63 289.20 494.66 246.54 C 495.86 245.08 497.20 243.56 497.52 241.64 C 498.23 194.79 497.33 147.91 497.79 101.05 C 497.63 87.93 498.51 74.80 497.40 61.69 C 494.91 63.41 492.80 65.63 491.32 68.27 C 451.20 136.90 411.63 205.86 371.42 274.43 C 370.10 275.10 368.32 274.53 367.72 273.16 C 327.19 203.42 286.72 133.65 246.13 63.94 C 243.98 60.14 242.07 55.97 238.31 53.45 Z" />
<path fill="#fcb818" opacity="1.00" d=" M 436.98 476.19 C 447.35 473.72 458.27 476.16 467.76 480.63 C 466.97 484.63 466.06 488.62 464.88 492.54 C 456.53 490.54 447.81 485.96 439.16 489.14 C 434.39 490.43 432.76 496.42 434.45 500.64 C 435.55 503.95 438.85 505.65 441.57 507.45 C 450.12 512.67 460.49 516.03 466.32 524.71 C 472.16 532.52 471.60 544.01 465.77 551.66 C 461.07 557.69 453.51 560.83 446.08 561.71 C 436.23 562.81 426.35 560.33 417.31 556.56 C 418.29 552.53 419.31 548.52 420.70 544.62 C 430.08 546.83 440.06 551.56 449.63 547.57 C 455.79 545.57 458.22 536.88 453.91 532.04 C 445.86 523.03 432.44 521.58 424.58 512.34 C 417.67 504.40 417.82 491.52 424.35 483.40 C 427.44 479.46 432.21 477.33 436.98 476.19 Z" />
<path fill="#fcb818" opacity="1.00" d=" M 629.17 477.06 C 633.59 477.04 638.03 476.96 642.46 476.76 C 643.14 504.64 643.15 532.57 642.46 560.46 C 638.21 560.45 633.96 560.46 629.72 560.45 C 616.67 540.91 603.37 521.54 590.19 502.09 C 590.08 521.55 590.49 541.01 589.95 560.46 C 585.51 560.46 581.07 560.45 576.64 560.19 C 576.36 532.46 576.52 504.73 576.55 477.00 C 581.01 476.99 585.47 477.00 589.94 477.00 C 602.82 496.28 615.96 515.39 628.96 534.60 C 629.22 515.42 628.85 496.24 629.17 477.06 Z" />
<path fill="#fcb818" opacity="1.00" d=" M 87.13 477.02 C 91.40 476.99 95.67 477.00 99.95 477.00 C 108.21 494.72 116.41 512.46 124.51 530.26 C 132.52 512.46 140.99 494.87 148.90 477.03 C 153.23 477.02 157.57 477.00 161.90 476.77 C 163.47 504.64 166.16 532.44 167.22 560.34 C 162.69 560.53 158.15 560.40 153.61 560.50 C 152.55 541.75 151.17 523.00 150.42 504.23 C 144.07 518.13 137.66 532.00 131.35 545.92 C 126.81 545.98 122.28 545.94 117.74 545.95 C 111.31 531.97 104.87 517.99 98.51 503.98 C 97.94 522.82 96.58 541.64 95.38 560.45 C 90.93 560.45 86.48 560.46 82.03 560.44 C 82.58 532.57 85.65 504.84 87.13 477.02 Z" />
<path fill="#fcb818" opacity="1.00" d=" M 190.05 477.07 C 205.35 476.75 220.64 476.91 235.95 477.01 C 235.95 481.16 235.95 485.32 235.95 489.49 C 225.42 489.75 214.89 489.72 204.36 489.70 C 204.35 496.90 204.35 504.10 204.36 511.29 C 214.39 511.29 224.42 511.04 234.44 511.57 C 234.46 515.65 234.46 519.74 234.44 523.83 C 224.41 524.10 214.38 523.96 204.35 524.01 C 204.36 531.89 204.35 539.77 204.35 547.64 C 215.05 547.65 225.75 547.63 236.44 547.66 C 236.48 551.87 236.46 556.10 236.29 560.32 C 220.92 560.54 205.53 560.53 190.16 560.32 C 189.85 532.57 190.06 504.82 190.05 477.07 Z" />
<path fill="#fcb818" opacity="1.00" d=" M 258.30 477.07 C 262.83 477.05 267.37 476.91 271.90 476.77 C 273.06 488.24 272.23 499.79 272.51 511.30 C 284.05 511.29 295.60 511.30 307.14 511.29 C 307.27 499.86 306.76 488.41 307.60 477.00 C 312.23 477.00 316.85 477.00 321.48 477.00 C 322.37 500.00 321.93 523.04 321.91 546.06 C 321.81 550.85 321.84 555.66 321.44 560.45 C 316.83 560.44 312.22 560.48 307.62 560.41 C 306.71 548.46 307.29 536.47 307.14 524.50 C 295.60 524.49 284.05 524.51 272.51 524.50 C 272.21 536.50 273.08 548.55 271.91 560.52 C 267.37 560.47 262.84 560.44 258.30 560.32 C 258.08 532.57 258.09 504.82 258.30 477.07 Z" />
<path fill="#fcb818" opacity="1.00" d=" M 346.30 477.06 C 360.04 477.48 374.92 474.31 387.56 481.34 C 399.22 487.29 402.40 503.77 395.47 514.42 C 392.32 519.82 386.65 522.88 381.38 525.85 C 390.03 537.12 399.86 547.55 407.12 559.83 C 401.58 560.43 396.02 560.55 390.46 560.44 C 382.44 549.61 373.90 539.18 365.91 528.33 C 364.11 528.47 362.30 528.63 360.51 528.82 C 360.43 539.28 360.66 549.75 360.30 560.21 C 355.64 560.45 350.98 560.52 346.31 560.39 C 346.07 532.61 346.13 504.83 346.30 477.06 M 360.50 489.50 C 360.49 498.19 360.51 506.89 360.49 515.58 C 367.54 515.49 375.77 515.57 380.93 509.93 C 385.66 505.95 385.98 497.82 381.11 493.83 C 375.58 488.70 367.45 489.66 360.50 489.50 Z" />
<path fill="#fcb818" opacity="1.00" d=" M 489.55 477.06 C 494.11 477.06 498.66 476.91 503.21 476.76 C 504.78 496.54 502.89 516.41 504.19 536.19 C 506.21 549.37 525.39 553.30 533.84 543.85 C 537.46 539.76 538.26 534.08 538.46 528.83 C 538.63 511.48 538.30 494.13 538.65 476.78 C 543.25 477.08 547.86 477.00 552.47 476.99 C 553.04 492.64 552.46 508.31 552.78 523.96 C 553.18 533.73 552.09 544.60 545.16 552.12 C 535.39 562.95 518.37 564.58 505.52 558.71 C 495.64 554.40 489.56 543.65 489.49 533.07 C 489.52 514.40 489.46 495.73 489.55 477.06 Z" />
<path fill="#fcb818" opacity="1.00" d=" M 194.33 590.39 C 203.35 580.86 218.34 579.35 230.13 583.96 C 232.68 585.18 232.77 588.26 232.02 590.63 C 223.35 588.46 213.60 585.84 205.20 590.35 C 190.17 598.26 188.52 622.85 202.50 632.60 C 209.70 637.48 218.87 636.29 227.01 635.24 C 226.99 628.44 226.99 621.65 227.05 614.86 C 229.14 614.97 231.23 615.05 233.32 615.15 C 233.59 623.36 233.39 631.59 233.46 639.81 C 223.51 642.29 212.62 644.07 202.82 640.08 C 194.15 636.64 188.39 628.03 186.97 619.00 C 185.43 609.08 187.39 597.98 194.33 590.39 Z" />
<path fill="#fcb818" opacity="1.00" d=" M 314.25 582.14 C 326.78 578.84 340.65 586.97 344.60 599.14 C 348.24 610.50 347.35 624.06 339.62 633.57 C 330.90 644.59 312.29 645.62 302.58 635.38 C 292.59 625.31 291.03 608.73 297.16 596.25 C 300.46 589.35 306.77 583.92 314.25 582.14 M 314.34 588.68 C 309.42 590.47 305.44 594.37 303.15 599.04 C 299.18 607.04 299.28 616.81 302.96 624.91 C 306.25 632.01 314.07 637.02 321.99 636.26 C 327.78 635.67 333.02 632.04 336.10 627.17 C 342.71 616.29 341.48 599.99 331.32 591.68 C 326.59 588.01 320.04 586.75 314.34 588.68 Z" />
<path fill="#fcb818" opacity="1.00" d=" M 408.30 582.81 C 410.35 582.79 412.41 582.79 414.47 582.79 C 415.01 600.23 414.55 617.69 414.71 635.14 C 422.14 635.21 429.57 634.98 437.00 635.31 C 437.00 637.27 436.99 639.23 437.00 641.20 C 427.38 641.19 417.76 641.22 408.15 641.19 C 408.18 621.73 408.02 602.26 408.30 582.81 Z" />
<path fill="#fcb818" opacity="1.00" d=" M 496.81 582.67 C 508.49 582.39 521.84 581.49 531.32 589.67 C 544.47 599.87 544.86 621.68 533.03 633.03 C 529.08 636.67 524.19 639.42 518.88 640.44 C 511.60 641.91 504.16 641.09 496.80 641.20 C 496.66 621.69 496.62 602.18 496.81 582.67 M 503.34 588.38 C 503.19 604.11 503.29 619.83 503.36 635.56 C 508.72 635.27 514.23 635.33 519.39 633.62 C 526.20 631.44 532.02 625.91 533.99 618.96 C 536.70 610.28 533.93 599.93 526.62 594.33 C 520.13 589.04 511.33 588.65 503.34 588.38 Z" />
</g>
</svg>
